<svg xmlns="http://www.w3.org/2000/svg" width="1200" height="800" viewBox="0 0 1200 800">
  <defs>
    <linearGradient id="bg" x1="0" y1="0" x2="1" y2="1">
      <stop offset="0%" stop-color="#EC4899"/>
      <stop offset="100%" stop-color="#3B82F6"/>
    </linearGradient>
    <filter id="blur" x="-20%" y="-20%" width="140%" height="140%">
      <feGaussianBlur stdDeviation="10"/>
    </filter>
  </defs>
  <rect width="100%" height="100%" fill="url(#bg)"/>
  <g filter="url(#blur)">
    <ellipse cx="358" cy="167" rx="142" ry="90" fill="#8B5CF6" opacity="0.3"/><rect x="618" y="28" width="110" height="268" rx="88" fill="#EC4899" opacity="0.36"/><ellipse cx="527" cy="186" rx="69" ry="102" fill="#EC4899" opacity="0.31"/><ellipse cx="835" cy="600" rx="116" ry="55" fill="#FB7185" opacity="0.28"/><rect x="-47" y="191" width="293" height="163" rx="46" fill="#F59E0B" opacity="0.34"/><rect x="1033" y="461" width="267" height="186" rx="114" fill="#FB7185" opacity="0.3"/><rect x="726" y="360" width="96" height="283" rx="74" fill="#F59E0B" opacity="0.27"/><rect x="1048" y="595" width="99" height="222" rx="25" fill="#8B5CF6" opacity="0.23"/><rect x="587" y="128" width="227" height="254" rx="80" fill="#06B6D4" opacity="0.19"/><ellipse cx="1052" cy="491" rx="153" ry="169" fill="#EC4899" opacity="0.34"/><ellipse cx="955" cy="672" rx="91" ry="159" fill="#EC4899" opacity="0.32"/><ellipse cx="67" cy="541" rx="137" ry="70" fill="#22C55E" opacity="0.38"/><rect x="11" y="-1" width="91" height="119" rx="20" fill="#FB7185" opacity="0.27"/><rect x="668" y="604" width="118" height="196" rx="85" fill="#EC4899" opacity="0.43"/><ellipse cx="373" cy="292" rx="107" ry="58" fill="#FB7185" opacity="0.37"/><rect x="938" y="526" width="212" height="216" rx="17" fill="#22C55E" opacity="0.28"/><ellipse cx="169" cy="320" rx="149" ry="147" fill="#06B6D4" opacity="0.25"/><ellipse cx="1179" cy="-9" rx="114" ry="163" fill="#F59E0B" opacity="0.23"/><rect x="294" y="510" width="299" height="315" rx="39" fill="#EC4899" opacity="0.37"/><rect x="340" y="155" width="220" height="248" rx="13" fill="#FB7185" opacity="0.26"/><rect x="113" y="344" width="270" height="190" rx="118" fill="#F59E0B" opacity="0.29"/><rect x="1151" y="230" width="133" height="132" rx="99" fill="#3B82F6" opacity="0.29"/>
  </g>
  <rect x="40" y="40" width="1120" height="720" rx="36" fill="#ffffff" opacity="0.08"/>
</svg>
